<?xml version="1.0" encoding="UTF-8" standalone="no"?>
<!-- Created with Inkscape (http://www.inkscape.org/) -->

<svg
   version="1.1"
   id="svg2"
   width="666.66669"
   height="666.66669"
   viewBox="0 0 666.66669 666.66669"
   sodipodi:docname="5847908.ai"
   xmlns:inkscape="http://www.inkscape.org/namespaces/inkscape"
   xmlns:sodipodi="http://sodipodi.sourceforge.net/DTD/sodipodi-0.dtd"
   xmlns="http://www.w3.org/2000/svg"
   xmlns:svg="http://www.w3.org/2000/svg">
  <defs
     id="defs6">
    <clipPath
       clipPathUnits="userSpaceOnUse"
       id="clipPath16">
      <path
         d="M 0,500 H 500 V 0 H 0 Z"
         id="path14" />
    </clipPath>
    <clipPath
       clipPathUnits="userSpaceOnUse"
       id="clipPath28">
      <path
         d="M 48.7457,452.173 H 469.343 V 36.7504 H 48.7457 Z"
         id="path26" />
    </clipPath>
    <clipPath
       clipPathUnits="userSpaceOnUse"
       id="clipPath44">
      <path
         d="M 0,500 H 500 V 0 H 0 Z"
         id="path42" />
    </clipPath>
    <clipPath
       clipPathUnits="userSpaceOnUse"
       id="clipPath152">
      <path
         d="M 0,500 H 500 V 0 H 0 Z"
         id="path150" />
    </clipPath>
    <clipPath
       clipPathUnits="userSpaceOnUse"
       id="clipPath160">
      <path
         d="M 189.278,145.81 H 352.511 V 46.1795 H 189.278 Z"
         id="path158" />
    </clipPath>
    <clipPath
       clipPathUnits="userSpaceOnUse"
       id="clipPath180">
      <path
         d="M 0,500 H 500 V 0 H 0 Z"
         id="path178" />
    </clipPath>
    <clipPath
       clipPathUnits="userSpaceOnUse"
       id="clipPath188">
      <path
         d="m 240.182,219.545 h 58.6 v -58.6 h -58.6 z"
         id="path186" />
    </clipPath>
    <clipPath
       clipPathUnits="userSpaceOnUse"
       id="clipPath208">
      <path
         d="m 375.457,266.722 h 38.265 v -38.265 h -38.265 z"
         id="path206" />
    </clipPath>
    <clipPath
       clipPathUnits="userSpaceOnUse"
       id="clipPath228">
      <path
         d="M 0,500 H 500 V 0 H 0 Z"
         id="path226" />
    </clipPath>
    <clipPath
       clipPathUnits="userSpaceOnUse"
       id="clipPath236">
      <path
         d="m 402.741,435.707 h 48.358 V 387.35 h -48.358 z"
         id="path234" />
    </clipPath>
    <clipPath
       clipPathUnits="userSpaceOnUse"
       id="clipPath256">
      <path
         d="M 0,500 H 500 V 0 H 0 Z"
         id="path254" />
    </clipPath>
    <clipPath
       clipPathUnits="userSpaceOnUse"
       id="clipPath264">
      <path
         d="m 101.162,437.836 h 62.454 v -66.52 h -62.454 z"
         id="path262" />
    </clipPath>
    <clipPath
       clipPathUnits="userSpaceOnUse"
       id="clipPath286">
      <path
         d="M 0,500 H 500 V 0 H 0 Z"
         id="path284" />
    </clipPath>
    <clipPath
       clipPathUnits="userSpaceOnUse"
       id="clipPath350">
      <path
         d="M 0,500 H 500 V 0 H 0 Z"
         id="path348" />
    </clipPath>
    <clipPath
       clipPathUnits="userSpaceOnUse"
       id="clipPath358">
      <path
         d="m 201.039,328.206 h 36.709 v -19.114 h -36.709 z"
         id="path356" />
    </clipPath>
    <clipPath
       clipPathUnits="userSpaceOnUse"
       id="clipPath382">
      <path
         d="m 367.006,328.206 h 43.296 v -19.114 h -43.296 z"
         id="path380" />
    </clipPath>
    <clipPath
       clipPathUnits="userSpaceOnUse"
       id="clipPath422">
      <path
         d="m 269.884,388.536 h 70.654 v -18.908 h -70.654 z"
         id="path420" />
    </clipPath>
    <clipPath
       clipPathUnits="userSpaceOnUse"
       id="clipPath456">
      <path
         d="M 0,500 H 500 V 0 H 0 Z"
         id="path454" />
    </clipPath>
    <clipPath
       clipPathUnits="userSpaceOnUse"
       id="clipPath484">
      <path
         d="M 0,500 H 500 V 0 H 0 Z"
         id="path482" />
    </clipPath>
  </defs>
  <sodipodi:namedview
     id="namedview4"
     pagecolor="#ffffff"
     bordercolor="#000000"
     borderopacity="0.25"
     inkscape:showpageshadow="2"
     inkscape:pageopacity="0.0"
     inkscape:pagecheckerboard="0"
     inkscape:deskcolor="#d1d1d1" />
  <g
     id="g8"
     inkscape:groupmode="layer"
     inkscape:label="5847908"
     transform="matrix(1.3333333,0,0,-1.3333333,0,666.66667)">
    <g
       id="g10">
      <g
         id="g12"
         clip-path="url(#clipPath16)">
        <g
           id="g18"
           transform="translate(59.7178,170.3008)">
          <path
             d="m 0,0 c 4.159,-31.604 24.206,-58.786 52.91,-71.781 60.918,-27.579 167.919,-71.636 206.163,-59.79 54.701,16.941 166.864,329.237 148.555,385.388 C 389.318,309.969 12.764,272.001 -4.08,225.686 -16.941,190.322 -9.589,72.862 0,0"
             style="fill:#5ae4a7;fill-opacity:1;fill-rule:nonzero;stroke:none"
             id="path20" />
        </g>
        <g
           id="g22">
          <g
             id="g24" />
          <g
             id="g36">
            <g
               clip-path="url(#clipPath28)"
               opacity="0.699997"
               id="g34">
              <g
                 transform="translate(59.7178,170.3008)"
                 id="g32">
                <path
                   d="m 0,0 c 4.159,-31.604 24.206,-58.786 52.91,-71.781 60.918,-27.579 167.919,-71.636 206.163,-59.79 54.701,16.941 166.864,329.237 148.555,385.388 C 389.318,309.969 12.764,272.001 -4.08,225.686 -16.941,190.322 -9.589,72.862 0,0"
                   style="fill:#ffffff;fill-opacity:1;fill-rule:nonzero;stroke:none"
                   id="path30" />
              </g>
            </g>
          </g>
        </g>
      </g>
    </g>
    <g
       id="g38">
      <g
         id="g40"
         clip-path="url(#clipPath44)">
        <g
           id="g46"
           transform="translate(419.3359,173.752)">
          <path
             d="M 0,0 0.001,0.004 C 0.015,0.039 -0.001,0.079 -0.037,0.095 -0.072,0.11 -0.114,0.094 -0.13,0.058 c -2.145,-4.955 -3.653,-10.156 -4.913,-15.403 -1.215,-5.26 -2.096,-10.597 -2.711,-15.967 l -0.384,-4.036 c -0.059,-0.673 -0.133,-1.345 -0.181,-2.019 l -0.11,-2.025 c -0.058,-1.35 -0.141,-2.701 -0.179,-4.052 l 0.037,-4.057 0.045,-2.026 c 0.029,-0.676 0.078,-1.35 0.124,-2.025 0.102,-1.347 0.184,-2.696 0.307,-4.041 0.259,-2.688 0.663,-5.363 1.079,-8.026 0.005,-0.034 0.036,-0.06 0.071,-0.06 0.039,0 0.071,0.033 0.07,0.072 v 0.003 c -0.007,1.352 -0.063,2.697 -0.094,4.042 -0.039,1.344 -0.156,2.682 -0.137,4.027 0.006,1.345 -0.029,2.685 -0.044,4.026 l -0.037,2.01 0.036,2.011 0.017,4.018 0.11,4.017 0.042,2.011 c 0.025,0.669 0.075,1.338 0.112,2.005 l 0.247,4.015 c 0.47,5.342 1.204,10.665 2.273,15.926 C -3.282,-10.24 -1.961,-5.005 0,0"
             style="fill:#1a2e35;fill-opacity:1;fill-rule:nonzero;stroke:none"
             id="path48" />
        </g>
        <g
           id="g50"
           transform="translate(419.9111,152.7363)">
          <path
             d="m 0,0 c 0.011,0.035 -0.008,0.076 -0.044,0.088 -0.037,0.014 -0.077,-0.006 -0.091,-0.044 -1.156,-3.339 -2.079,-6.755 -2.86,-10.206 -0.746,-3.458 -1.332,-6.961 -1.69,-10.49 -0.356,-3.518 -0.75,-7.038 -0.797,-10.575 -0.055,-3.535 0.002,-7.073 0.375,-10.604 0.003,-0.033 0.03,-0.061 0.064,-0.064 0.039,-0.004 0.074,0.025 0.078,0.064 0.408,3.52 0.657,7.033 0.902,10.544 0.249,3.509 0.282,7.028 0.511,10.539 0.212,3.5 0.652,6.986 1.253,10.449 C -1.708,-6.835 -0.972,-3.385 0,0"
             style="fill:#1a2e35;fill-opacity:1;fill-rule:nonzero;stroke:none"
             id="path52" />
        </g>
        <g
           id="g54"
           transform="translate(431.5625,145.3437)">
          <path
             d="m 0,0 c -0.021,0.032 -0.065,0.042 -0.099,0.021 -2.916,-1.846 -5.516,-4.171 -7.79,-6.792 -1.117,-1.329 -2.155,-2.721 -3.046,-4.235 l -0.626,-1.182 -0.49,-1.226 c -0.176,-0.407 -0.3,-0.826 -0.427,-1.245 -0.126,-0.418 -0.266,-0.835 -0.379,-1.257 -0.875,-3.377 -1.456,-6.817 -1.613,-10.276 -0.14,-3.457 -0.075,-6.919 0.387,-10.351 0.005,-0.032 0.032,-0.06 0.066,-0.061 0.039,-0.003 0.074,0.026 0.077,0.065 l 0.887,10.246 c 0.354,3.388 0.571,6.795 1.298,10.104 0.092,0.412 0.211,0.814 0.316,1.223 0.105,0.407 0.208,0.818 0.359,1.206 l 0.416,1.185 0.535,1.118 c 0.789,1.48 1.754,2.896 2.791,4.238 2.081,2.686 4.528,5.133 7.316,7.12 l 0.002,0.003 C 0.012,-0.074 0.02,-0.032 0,0"
             style="fill:#1a2e35;fill-opacity:1;fill-rule:nonzero;stroke:none"
             id="path56" />
        </g>
        <g
           id="g58"
           transform="translate(425.9238,132.1797)">
          <path
             d="m 0,0 c -1.588,-1.025 -2.65,-2.638 -3.543,-4.259 -0.851,-1.657 -1.521,-3.415 -1.985,-5.217 -0.139,-0.447 -0.249,-0.899 -0.346,-1.353 l -0.321,-1.362 c -0.164,-0.915 -0.292,-1.84 -0.345,-2.767 -0.012,-0.931 -0.038,-1.858 0.024,-2.785 0.078,-0.927 0.183,-1.851 0.366,-2.767 0.005,-0.026 0.028,-0.052 0.056,-0.057 0.039,-0.008 0.077,0.018 0.085,0.057 0.225,0.914 0.371,1.82 0.491,2.724 0.144,0.901 0.285,1.798 0.392,2.695 0.132,0.893 0.25,1.784 0.319,2.685 0.125,0.887 0.191,1.796 0.385,2.673 0.313,1.776 0.826,3.51 1.52,5.169 0.691,1.644 1.59,3.283 2.974,4.442 l 0.011,0.009 c 0.026,0.022 0.033,0.061 0.014,0.092 C 0.076,0.012 0.032,0.021 0,0"
             style="fill:#1a2e35;fill-opacity:1;fill-rule:nonzero;stroke:none"
             id="path60" />
        </g>
        <g
           id="g62"
           transform="translate(409.584,121.916)">
          <path
             d="m 0,0 c -0.383,4.549 -1.134,9.052 -1.843,13.553 -0.711,4.502 -1.495,8.989 -2.318,13.468 -0.853,4.475 -1.744,8.941 -2.709,13.391 -0.009,0.036 -0.045,0.062 -0.082,0.055 -0.039,-0.007 -0.065,-0.044 -0.058,-0.083 0.779,-4.484 1.484,-8.981 2.149,-13.481 0.682,-4.497 1.325,-9 1.894,-13.51 0.556,-4.513 0.988,-9.037 1.555,-13.541 l 1.664,-13.541 c 0.004,-0.034 0.031,-0.061 0.067,-0.063 0.039,-0.002 0.073,0.028 0.075,0.068 0.051,1.141 0.052,2.282 0.081,3.425 0.01,1.144 -0.046,2.282 -0.067,3.425 C 0.366,-4.549 0.171,-2.275 0,0"
             style="fill:#1a2e35;fill-opacity:1;fill-rule:nonzero;stroke:none"
             id="path64" />
        </g>
        <g
           id="g66"
           transform="translate(406.8564,121.9814)">
          <path
             d="m 0,0 c -0.243,1.802 -0.574,3.593 -0.918,5.378 l -0.639,2.656 c -0.209,0.885 -0.407,1.773 -0.667,2.647 -0.907,3.523 -2.067,6.987 -3.476,10.343 l -0.545,1.251 -0.607,1.225 c -0.385,0.825 -0.851,1.61 -1.294,2.405 -0.951,1.549 -1.937,3.097 -3.283,4.353 -0.027,0.025 -0.07,0.025 -0.096,-10e-4 -0.029,-0.028 -0.03,-0.072 -0.002,-0.1 l 0.006,-0.008 c 1.244,-1.288 2.15,-2.879 3.003,-4.451 0.396,-0.809 0.814,-1.604 1.153,-2.439 l 0.534,-1.238 0.473,-1.263 c 1.26,-3.368 2.271,-6.829 3.031,-10.348 0.415,-1.749 0.689,-3.533 1.028,-5.298 l 0.426,-2.666 c 0.154,-0.885 0.344,-1.766 0.469,-2.658 0.284,-1.778 0.611,-3.552 0.921,-5.331 0.276,-1.785 0.601,-3.565 0.978,-5.349 0.007,-0.032 0.035,-0.058 0.069,-0.058 0.04,0 0.072,0.031 0.073,0.071 0.008,1.816 -0.035,3.636 -0.128,5.451 C 0.403,-3.614 0.188,-1.809 0,0"
             style="fill:#1a2e35;fill-opacity:1;fill-rule:nonzero;stroke:none"
             id="path68" />
        </g>
        <g
           id="g70"
           transform="translate(403.0928,121.75)">
          <path
             d="m 0,0 c -0.844,2.386 -1.818,4.723 -2.881,7.013 -1.091,2.278 -2.267,4.512 -3.623,6.641 -0.02,0.031 -0.063,0.042 -0.096,0.024 -0.034,-0.021 -0.045,-0.064 -0.025,-0.098 1.184,-2.211 2.186,-4.517 3.093,-6.849 0.923,-2.326 1.755,-4.687 2.452,-7.085 0.711,-2.396 1.221,-4.837 1.858,-7.244 0.67,-2.404 1.212,-4.834 1.951,-7.269 0.009,-0.029 0.037,-0.053 0.069,-0.053 0.04,-10e-4 0.072,0.031 0.073,0.07 0.035,2.541 -0.214,5.08 -0.708,7.568 C 1.717,-4.78 0.838,-2.385 0,0"
             style="fill:#1a2e35;fill-opacity:1;fill-rule:nonzero;stroke:none"
             id="path72" />
        </g>
        <g
           id="g74"
           transform="translate(402.9365,113.8008)">
          <path
             d="m 0,0 c -0.432,1.494 -1.167,2.886 -2.003,4.198 -0.82,1.319 -1.772,2.566 -2.914,3.621 -0.588,0.51 -1.189,1 -1.854,1.399 -0.655,0.409 -1.349,0.755 -2.102,0.95 -0.033,0.009 -0.068,-0.008 -0.083,-0.039 -0.016,-0.036 0,-0.078 0.036,-0.094 l 0.009,-0.004 c 1.362,-0.605 2.515,-1.61 3.487,-2.709 0.987,-1.101 1.775,-2.364 2.431,-3.679 0.689,-1.307 1.047,-2.751 1.646,-4.097 0.266,-0.69 0.529,-1.385 0.835,-2.073 0.26,-0.703 0.548,-1.405 0.914,-2.102 L 0.404,-4.633 C 0.416,-4.655 0.439,-4.671 0.466,-4.672 0.506,-4.674 0.54,-4.643 0.542,-4.603 0.574,-3.824 0.528,-3.05 0.455,-2.277 0.344,-1.514 0.183,-0.755 0,0"
             style="fill:#1a2e35;fill-opacity:1;fill-rule:nonzero;stroke:none"
             id="path76" />
        </g>
        <g
           id="g78"
           transform="translate(403.2178,155.8164)">
          <path
             d="m 0,0 c 0,0 -7.453,1.72 -9.174,9.746 -1.72,8.027 3.822,4.587 -1.146,17.2 -4.969,12.614 -3.823,15.481 -2.103,19.112 1.721,3.63 2.676,2.484 4.205,-2.294 C -6.689,38.986 -1.146,31.533 0.955,17.582 3.058,3.631 0,0 0,0"
             style="fill:#5ae4a7;fill-opacity:1;fill-rule:nonzero;stroke:none"
             id="path80" />
        </g>
        <g
           id="g82"
           transform="translate(417.9326,169.3848)">
          <path
             d="m 0,0 c 0,0 -4.969,1.721 -5.159,11.085 -0.192,9.364 3.631,7.453 4.204,19.11 0.573,11.659 1.338,19.876 3.439,20.068 2.103,0.19 7.645,-5.734 9.556,-18.73 C 13.951,18.538 9.556,9.938 5.733,6.116 1.911,2.294 0,0 0,0"
             style="fill:#5ae4a7;fill-opacity:1;fill-rule:nonzero;stroke:none"
             id="path84" />
        </g>
        <g
           id="g86"
           transform="translate(400.542,144.541)">
          <path
             d="m 0,0 c 0,0 -1.146,6.88 -3.44,10.128 -2.293,3.25 -7.262,6.116 -10.511,12.423 -3.249,6.306 -6.88,9.364 -6.689,0.382 0.191,-8.982 4.204,-13.569 9.173,-16.626 C -6.498,3.248 0,0 0,0"
             style="fill:#5ae4a7;fill-opacity:1;fill-rule:nonzero;stroke:none"
             id="path88" />
        </g>
        <g
           id="g90"
           transform="translate(398.4395,132.6914)">
          <path
             d="m 0,0 c 0,0 -4.587,8.791 -11.275,15.289 -6.689,6.498 -12.04,9.747 -10.129,6.498 1.911,-3.249 4.205,-3.058 7.453,-8.791 3.249,-5.733 2.294,-9.938 6.88,-13.186 C -2.484,-3.439 0,0 0,0"
             style="fill:#5ae4a7;fill-opacity:1;fill-rule:nonzero;stroke:none"
             id="path92" />
        </g>
        <g
           id="g94"
           transform="translate(397.8662,121.416)">
          <path
             d="m 0,0 c -0.191,0.573 -0.382,4.778 -6.88,8.218 -6.498,3.44 -12.613,2.102 -11.849,0.383 0.765,-1.721 4.778,-4.587 8.791,-6.307 C -5.925,0.573 0,0 0,0"
             style="fill:#5ae4a7;fill-opacity:1;fill-rule:nonzero;stroke:none"
             id="path96" />
        </g>
        <g
           id="g98"
           transform="translate(417.5508,144.1582)">
          <path
             d="m 0,0 c 0,0 -2.866,3.631 -1.338,11.275 1.529,7.645 4.969,5.734 8.791,9.747 3.822,4.014 3.058,4.587 6.88,8.791 3.822,4.205 7.263,6.499 8.791,4.778 1.529,-1.72 -0.764,-7.07 -3.058,-10.129 C 17.773,21.404 14.143,19.876 12.422,16.054 10.702,12.231 11.467,6.115 7.071,3.249 2.676,0.383 0,0 0,0"
             style="fill:#5ae4a7;fill-opacity:1;fill-rule:nonzero;stroke:none"
             id="path100" />
        </g>
        <g
           id="g102"
           transform="translate(427.1064,142.0557)">
          <path
             d="m 0,0 c 0,0 6.88,7.836 11.849,13.569 4.968,5.734 6.88,10.129 7.071,6.307 0.191,-3.822 1.72,-6.88 -2.294,-11.849 C 12.613,3.059 0,0 0,0"
             style="fill:#5ae4a7;fill-opacity:1;fill-rule:nonzero;stroke:none"
             id="path104" />
        </g>
        <g
           id="g106"
           transform="translate(423.4756,129.4424)">
          <path
             d="m 0,0 c 0,0 -0.191,3.059 10.702,10.13 10.893,7.07 15.48,8.408 14.333,5.542 C 23.889,12.805 19.11,9.938 13.951,4.778 8.791,-0.382 0,0 0,0"
             style="fill:#5ae4a7;fill-opacity:1;fill-rule:nonzero;stroke:none"
             id="path108" />
        </g>
        <g
           id="g110"
           transform="translate(403.6719,156.6309)">
          <path
             d="m 0,0 c 0,0 -2.557,13.71 -5.232,23.456 -2.675,9.747 -4.396,15.672 -4.396,15.672"
             style="fill:none;stroke:#1a2e35;stroke-width:1;stroke-linecap:round;stroke-linejoin:round;stroke-miterlimit:10;stroke-dasharray:none;stroke-opacity:1"
             id="path112" />
        </g>
        <g
           id="g114"
           transform="translate(417.4932,169.2412)">
          <path
             d="M 0,0 C 0,0 4.645,14.859 6.173,23.842 7.702,32.824 5.982,39.513 5.218,43.526"
             style="fill:none;stroke:#1a2e35;stroke-width:1;stroke-linecap:round;stroke-linejoin:round;stroke-miterlimit:10;stroke-dasharray:none;stroke-opacity:1"
             id="path116" />
        </g>
        <g
           id="g118"
           transform="translate(399.9395,144.8271)">
          <path
             d="m 0,0 c 0,0 -2.838,5.064 -7.042,10.033 -4.204,4.97 -7.453,7.645 -9.364,12.423"
             style="fill:none;stroke:#1a2e35;stroke-width:1;stroke-linecap:round;stroke-linejoin:round;stroke-miterlimit:10;stroke-dasharray:none;stroke-opacity:1"
             id="path120" />
        </g>
        <g
           id="g122"
           transform="translate(417.5508,144.1582)">
          <path
             d="M 0,0 C 0,0 1.529,9.174 5.16,13.951 8.791,18.729 16.054,26.183 18.92,30.96"
             style="fill:none;stroke:#1a2e35;stroke-width:1;stroke-linecap:round;stroke-linejoin:round;stroke-miterlimit:10;stroke-dasharray:none;stroke-opacity:1"
             id="path124" />
        </g>
        <g
           id="g126"
           transform="translate(397.417,121.625)">
          <path
             d="M 0,0 C 0,0 -6.431,4.187 -11.018,6.479"
             style="fill:none;stroke:#1a2e35;stroke-width:1;stroke-linecap:round;stroke-linejoin:round;stroke-miterlimit:10;stroke-dasharray:none;stroke-opacity:1"
             id="path128" />
        </g>
        <g
           id="g130"
           transform="translate(434.2393,83.1035)">
          <path
             d="m 0,0 c -0.43,11.598 -13.315,19.329 -13.315,19.329 h -8.152 -3.445 -8.151 c 0,0 -12.886,-7.731 -13.316,-19.329 -0.43,-11.597 14.604,-54.118 14.604,-54.118 h 6.863 3.445 6.863 c 0,0 15.034,42.521 14.604,54.118"
             style="fill:#1a2e35;fill-opacity:1;fill-rule:nonzero;stroke:none"
             id="path132" />
        </g>
        <g
           id="g134"
           transform="translate(434.2393,83.1035)">
          <path
             d="m 0,0 c -0.43,11.598 -13.315,19.329 -13.315,19.329 h -8.152 -3.445 -8.151 c 0,0 -12.886,-7.731 -13.316,-19.329 -0.43,-11.597 14.604,-54.118 14.604,-54.118 h 6.863 3.445 6.863 c 0,0 15.034,42.521 14.604,54.118 z"
             style="fill:none;stroke:#1a2e35;stroke-width:1;stroke-linecap:round;stroke-linejoin:round;stroke-miterlimit:10;stroke-dasharray:none;stroke-opacity:1"
             id="path136" />
        </g>
        <g
           id="g138"
           transform="translate(423.4668,113.835)">
          <path
             d="m 0,0 h -25.199 l 2.908,-11.402 h 19.384 z"
             style="fill:#1a2e35;fill-opacity:1;fill-rule:nonzero;stroke:none"
             id="path140" />
        </g>
        <g
           id="g142"
           transform="translate(423.4668,113.835)">
          <path
             d="m 0,0 h -25.199 l 2.908,-11.402 h 19.384 z"
             style="fill:none;stroke:#1a2e35;stroke-width:1;stroke-linecap:round;stroke-linejoin:round;stroke-miterlimit:10;stroke-dasharray:none;stroke-opacity:1"
             id="path144" />
        </g>
      </g>
    </g>
    <g
       id="g146">
      <g
         id="g148"
         clip-path="url(#clipPath152)">
        <g
           id="g154">
          <g
             id="g156" />
          <g
             id="g172">
            <g
               clip-path="url(#clipPath160)"
               opacity="0.300003"
               id="g170">
              <g
                 transform="translate(283.4717,93.2646)"
                 id="g164">
                <path
                   d="m 0,0 c 0,11.633 9.431,21.063 21.063,21.063 11.634,0 21.064,-9.43 21.064,-21.063 0,-11.633 -9.43,-21.063 -21.064,-21.063 C 9.431,-21.063 0,-11.633 0,0 Z m 49.586,-17.06 15.406,-1.765 3.46,15.161 -14.186,4.933 c -0.142,3.763 -0.91,7.365 -2.202,10.708 L 62.621,22.493 52.926,34.651 40.604,26.876 c -3.038,2.212 -6.463,3.92 -10.157,5.006 L 28.839,46.401 H 13.288 L 11.681,31.882 C 8.038,30.811 4.657,29.134 1.65,26.967 L -10.916,34.896 -20.611,22.738 -9.9,12.068 C -11.163,8.83 -11.941,5.351 -12.127,1.712 l -14.581,-5.07 3.461,-15.162 15.6,1.789 c 1.699,-2.91 3.822,-5.54 6.293,-7.8 l -5.291,-15.027 14.011,-6.747 8.44,13.49 c 1.713,-0.273 3.468,-0.419 5.257,-0.419 1.574,0 3.12,0.117 4.634,0.329 l 8.468,-13.535 14.012,6.747 -5.187,14.729 c 2.585,2.273 4.817,4.937 6.596,7.904 z"
                   style="fill:none;stroke:#000000;stroke-width:1;stroke-linecap:butt;stroke-linejoin:miter;stroke-miterlimit:10;stroke-dasharray:none;stroke-opacity:1"
                   id="path162" />
              </g>
              <g
                 transform="translate(208.4736,112.9795)"
                 id="g168">
                <path
                   d="m 0,0 c 0,8.105 6.571,14.676 14.676,14.676 8.105,0 14.676,-6.571 14.676,-14.676 0,-8.105 -6.571,-14.676 -14.676,-14.676 C 6.571,-14.676 0,-8.105 0,0 Z m 34.549,-11.886 10.734,-1.23 2.411,10.562 -9.885,3.438 C 37.71,3.507 37.176,6.016 36.275,8.345 l 7.356,7.327 -6.756,8.472 -8.584,-5.418 c -2.117,1.542 -4.503,2.731 -7.077,3.487 L 20.094,32.33 H 9.259 L 8.139,22.213 C 5.6,21.468 3.245,20.299 1.15,18.789 l -8.756,5.525 -6.755,-8.471 7.463,-7.435 C -7.778,6.152 -8.321,3.728 -8.449,1.192 l -10.16,-3.532 2.411,-10.563 10.87,1.246 c 1.183,-2.028 2.662,-3.861 4.384,-5.435 l -3.686,-10.47 9.762,-4.701 5.88,9.399 c 1.194,-0.19 2.417,-0.291 3.664,-0.291 1.096,0 2.173,0.081 3.228,0.228 l 5.901,-9.43 9.762,4.701 -3.614,10.262 c 1.801,1.584 3.356,3.44 4.596,5.508 z"
                   style="fill:none;stroke:#000000;stroke-width:1;stroke-linecap:butt;stroke-linejoin:miter;stroke-miterlimit:10;stroke-dasharray:none;stroke-opacity:1"
                   id="path166" />
              </g>
            </g>
          </g>
        </g>
      </g>
    </g>
    <g
       id="g174">
      <g
         id="g176"
         clip-path="url(#clipPath180)">
        <g
           id="g182">
          <g
             id="g184" />
          <g
             id="g200">
            <g
               clip-path="url(#clipPath188)"
               opacity="0.300003"
               id="g198">
              <g
                 transform="translate(298.2822,190.2451)"
                 id="g192">
                <path
                   d="m 0,0 c 0,15.906 -12.895,28.8 -28.8,28.8 -15.906,0 -28.8,-12.894 -28.8,-28.8 0,-15.906 12.894,-28.801 28.8,-28.801 C -12.895,-28.801 0,-15.906 0,0 Z"
                   style="fill:none;stroke:#000000;stroke-width:1;stroke-linecap:round;stroke-linejoin:round;stroke-miterlimit:10;stroke-dasharray:none;stroke-opacity:1"
                   id="path190" />
              </g>
              <g
                 transform="translate(269.8154,169.6836)"
                 id="g196">
                <path
                   d="m 0,0 v 3.848 c -2.842,0.111 -4.966,1.021 -6.372,2.731 -1.407,1.71 -2.166,4.262 -2.276,7.656 l 5.834,0.993 c 0.055,-1.379 0.2,-2.532 0.434,-3.456 0.234,-0.923 0.587,-1.613 1.056,-2.068 0.468,-0.456 1.076,-0.683 1.82,-0.683 0.855,0 1.441,0.275 1.76,0.828 0.315,0.55 0.474,1.185 0.474,1.903 0,1.407 -0.324,2.586 -0.971,3.538 C 1.11,16.242 0.22,17.2 -0.91,18.166 l -3.518,3.021 c -0.801,0.745 -1.517,1.502 -2.151,2.276 -0.636,0.771 -1.139,1.655 -1.511,2.648 -0.372,0.993 -0.558,2.165 -0.558,3.518 0,2.592 0.737,4.613 2.213,6.061 1.475,1.449 3.456,2.27 5.938,2.462 v 3.683 H 1.489 V 38.152 C 2.979,38.07 4.2,37.731 5.152,37.139 6.104,36.545 6.827,35.801 7.324,34.904 7.82,34.008 8.179,33.027 8.4,31.966 8.62,30.904 8.758,29.877 8.814,28.883 L 2.896,28.015 c -0.028,1.02 -0.11,1.923 -0.248,2.71 -0.138,0.787 -0.386,1.399 -0.745,1.841 -0.358,0.442 -0.91,0.649 -1.655,0.621 -0.772,-0.028 -1.359,-0.331 -1.759,-0.911 -0.399,-0.579 -0.599,-1.227 -0.599,-1.945 0,-1.269 0.302,-2.289 0.91,-3.061 0.606,-0.773 1.297,-1.518 2.068,-2.235 L 4.304,22.056 C 5.214,21.229 6.056,20.332 6.827,19.366 7.6,18.4 8.221,17.331 8.689,16.158 9.159,14.985 9.394,13.642 9.394,12.124 9.394,10.662 9.097,9.331 8.503,8.132 7.909,6.931 7.055,5.959 5.938,5.214 4.82,4.469 3.503,4.027 1.986,3.89 V 0 Z"
                   style="fill:none;stroke:#000000;stroke-width:1;stroke-linecap:round;stroke-linejoin:round;stroke-miterlimit:10;stroke-dasharray:none;stroke-opacity:1"
                   id="path194" />
              </g>
            </g>
          </g>
        </g>
        <g
           id="g202">
          <g
             id="g204" />
          <g
             id="g220">
            <g
               clip-path="url(#clipPath208)"
               opacity="0.300003"
               id="g218">
              <g
                 transform="translate(413.2217,247.5898)"
                 id="g212">
                <path
                   d="m 0,0 c 0,10.291 -8.342,18.632 -18.633,18.632 -10.29,0 -18.632,-8.341 -18.632,-18.632 0,-10.291 8.342,-18.633 18.632,-18.633 C -8.342,-18.633 0,-10.291 0,0 Z"
                   style="fill:none;stroke:#000000;stroke-width:1;stroke-linecap:round;stroke-linejoin:round;stroke-miterlimit:10;stroke-dasharray:none;stroke-opacity:1"
                   id="path210" />
              </g>
              <g
                 transform="translate(394.8047,234.2881)"
                 id="g216">
                <path
                   d="m 0,0 v 2.489 c -1.838,0.072 -3.213,0.66 -4.122,1.767 -0.911,1.106 -1.401,2.757 -1.473,4.953 L -1.82,9.851 C -1.785,8.959 -1.691,8.213 -1.539,7.615 -1.388,7.018 -1.16,6.571 -0.856,6.277 -0.554,5.982 -0.16,5.835 0.321,5.835 c 0.553,0 0.933,0.179 1.138,0.536 0.205,0.357 0.308,0.767 0.308,1.232 0,0.91 -0.21,1.672 -0.629,2.289 -0.419,0.616 -0.995,1.235 -1.727,1.86 l -2.275,1.954 c -0.518,0.482 -0.982,0.973 -1.393,1.473 -0.411,0.499 -0.736,1.071 -0.976,1.713 -0.242,0.643 -0.362,1.401 -0.362,2.276 0,1.677 0.477,2.985 1.432,3.922 0.954,0.937 2.235,1.468 3.842,1.593 v 2.382 H 0.964 V 24.683 C 1.928,24.629 2.718,24.41 3.333,24.027 3.949,23.643 4.417,23.161 4.738,22.581 5.06,22.001 5.291,21.367 5.435,20.68 5.577,19.993 5.666,19.328 5.702,18.686 L 1.874,18.124 c -0.019,0.66 -0.071,1.245 -0.16,1.753 -0.09,0.509 -0.251,0.905 -0.483,1.192 -0.232,0.285 -0.588,0.419 -1.07,0.401 -0.5,-0.018 -0.88,-0.214 -1.139,-0.589 -0.258,-0.375 -0.387,-0.794 -0.387,-1.258 0,-0.821 0.196,-1.482 0.589,-1.981 0.392,-0.5 0.838,-0.982 1.338,-1.446 L 2.784,14.269 C 3.373,13.733 3.918,13.153 4.417,12.528 4.917,11.903 5.318,11.212 5.622,10.453 5.926,9.694 6.077,8.825 6.077,7.843 6.077,6.897 5.886,6.036 5.501,5.26 5.117,4.483 4.564,3.854 3.842,3.372 3.119,2.891 2.267,2.605 1.285,2.516 V 0 Z"
                   style="fill:none;stroke:#000000;stroke-width:1;stroke-linecap:round;stroke-linejoin:round;stroke-miterlimit:10;stroke-dasharray:none;stroke-opacity:1"
                   id="path214" />
              </g>
            </g>
          </g>
        </g>
      </g>
    </g>
    <g
       id="g222">
      <g
         id="g224"
         clip-path="url(#clipPath228)">
        <g
           id="g230">
          <g
             id="g232" />
          <g
             id="g248">
            <g
               clip-path="url(#clipPath236)"
               opacity="0.300003"
               id="g246">
              <g
                 transform="translate(448.3633,411.1587)"
                 id="g240">
                <path
                   d="m 0,0 h -22.554 v 21.828 c -12.464,0 -22.569,-10.105 -22.569,-22.568 0,-12.464 10.105,-22.569 22.569,-22.569 12.463,0 22.569,10.105 22.569,22.569 C 0.015,-0.496 0.007,-0.245 0,0 Z"
                   style="fill:none;stroke:#000000;stroke-width:1;stroke-linecap:butt;stroke-linejoin:miter;stroke-miterlimit:10;stroke-dasharray:none;stroke-opacity:1"
                   id="path238" />
              </g>
              <g
                 transform="translate(450.583,413.3784)"
                 id="g244">
                <path
                   d="M 0,0 H -22.554 V 21.828 C -10.335,21.828 -0.388,12.118 0,0 Z"
                   style="fill:none;stroke:#000000;stroke-width:1;stroke-linecap:butt;stroke-linejoin:miter;stroke-miterlimit:10;stroke-dasharray:none;stroke-opacity:1"
                   id="path242" />
              </g>
            </g>
          </g>
        </g>
      </g>
    </g>
    <g
       id="g250">
      <g
         id="g252"
         clip-path="url(#clipPath256)">
        <g
           id="g258">
          <g
             id="g260" />
          <g
             id="g278">
            <g
               clip-path="url(#clipPath264)"
               opacity="0.300003"
               id="g276">
              <path
                 d="m 118.291,371.816 h -16.628 v 51.331 h 16.628 z"
                 style="fill:none;stroke:#000000;stroke-width:1;stroke-linecap:round;stroke-linejoin:round;stroke-miterlimit:10;stroke-dasharray:none;stroke-opacity:1"
                 id="path266" />
              <path
                 d="m 140.703,371.816 h -16.628 v 33.257 h 16.628 z"
                 style="fill:none;stroke:#000000;stroke-width:1;stroke-linecap:round;stroke-linejoin:round;stroke-miterlimit:10;stroke-dasharray:none;stroke-opacity:1"
                 id="path268" />
              <path
                 d="m 163.116,371.816 h -16.628 v 21.328 h 16.628 z"
                 style="fill:none;stroke:#000000;stroke-width:1;stroke-linecap:round;stroke-linejoin:round;stroke-miterlimit:10;stroke-dasharray:none;stroke-opacity:1"
                 id="path270" />
              <g
                 transform="translate(160.2163,396.5195)"
                 id="g274">
                <path
                   d="M 0,0 -3.035,15.053 -6.169,12.29 -22.881,31.245 c -0.454,0.514 -1.049,0.884 -1.711,1.064 l -30.996,8.395 -1.83,-6.757 29.981,-8.12 L -11.42,7.66 -14.555,4.896 Z"
                   style="fill:none;stroke:#000000;stroke-width:1;stroke-linecap:butt;stroke-linejoin:miter;stroke-miterlimit:10;stroke-dasharray:none;stroke-opacity:1"
                   id="path272" />
              </g>
            </g>
          </g>
        </g>
      </g>
    </g>
    <g
       id="g280">
      <g
         id="g282"
         clip-path="url(#clipPath286)">
        <g
           id="g288"
           transform="translate(341.8154,376.9751)">
          <path
             d="m 0,0 h -75.469 c -5.512,0 -9.982,4.47 -9.982,9.983 v 74.022 c 0,5.513 4.47,9.982 9.982,9.982 H 0 c 5.513,0 9.982,-4.469 9.982,-9.982 V 9.983 C 9.982,4.47 5.513,0 0,0"
             style="fill:#1a2e35;fill-opacity:1;fill-rule:nonzero;stroke:none"
             id="path290" />
        </g>
        <g
           id="g292"
           transform="translate(440.8564,280.3506)">
          <path
             d="m 0,0 h -273.55 c 0.38,75.22 61.469,136.08 136.779,136.08 C -61.471,136.08 -0.38,75.22 0,0"
             style="fill:#5ae4a7;fill-opacity:1;fill-rule:nonzero;stroke:none"
             id="path294" />
        </g>
        <g
           id="g296"
           transform="translate(440.8564,280.3506)">
          <path
             d="m 0,0 h -273.55 c 0.38,75.22 61.469,136.08 136.779,136.08 C -61.471,136.08 -0.38,75.22 0,0 Z"
             style="fill:none;stroke:#1a2e35;stroke-width:1;stroke-linecap:butt;stroke-linejoin:round;stroke-miterlimit:10;stroke-dasharray:none;stroke-opacity:1"
             id="path298" />
        </g>
        <g
           id="g300"
           transform="translate(434.0459,280.3506)">
          <path
             d="m 0,0 h -259.93 c 0.23,43.49 21.82,81.92 54.81,105.34 21.22,15.07 47.16,23.931 75.16,23.931 28,0 53.94,-8.861 75.16,-23.921 C -21.819,81.92 -0.229,43.49 0,0"
             style="fill:#ffffff;fill-opacity:1;fill-rule:nonzero;stroke:none"
             id="path302" />
        </g>
        <g
           id="g304"
           transform="translate(434.0459,280.3506)">
          <path
             d="m 0,0 h -259.93 c 0.23,43.49 21.82,81.92 54.81,105.34 21.22,15.07 47.16,23.931 75.16,23.931 28,0 53.94,-8.861 75.16,-23.921 C -21.819,81.92 -0.229,43.49 0,0 Z"
             style="fill:none;stroke:#1a2e35;stroke-width:1;stroke-linecap:butt;stroke-linejoin:round;stroke-miterlimit:10;stroke-dasharray:none;stroke-opacity:1"
             id="path306" />
        </g>
        <g
           id="g308"
           transform="translate(379.2461,385.7007)">
          <path
             d="m 0,0 -74.66,-105.35 -0.5,-0.7 -0.5,0.7 -74.66,105.34 c 21.22,15.07 47.16,23.93 75.16,23.93 28,0 53.94,-8.86 75.16,-23.92"
             style="fill:#ffffff;fill-opacity:1;fill-rule:nonzero;stroke:none"
             id="path310" />
        </g>
        <g
           id="g312"
           transform="translate(379.2461,385.7007)">
          <path
             d="m 0,0 -74.66,-105.35 -0.5,-0.7 -0.5,0.7 -74.66,105.34 c 21.22,15.07 47.16,23.93 75.16,23.93 28,0 53.94,-8.86 75.16,-23.92 z"
             style="fill:none;stroke:#1a2e35;stroke-width:1;stroke-linecap:butt;stroke-linejoin:round;stroke-miterlimit:10;stroke-dasharray:none;stroke-opacity:1"
             id="path314" />
        </g>
        <g
           id="g316"
           transform="translate(355.3057,280.3506)">
          <path
             d="m 0,0 h -102.449 c 0.37,27.98 23.159,50.54 51.229,50.54 C -23.159,50.54 -0.37,27.98 0,0"
             style="fill:#ffffff;fill-opacity:1;fill-rule:nonzero;stroke:none"
             id="path318" />
        </g>
        <g
           id="g320"
           transform="translate(355.3057,280.3506)">
          <path
             d="m 0,0 h -102.449 c 0.37,27.98 23.159,50.54 51.229,50.54 C -23.159,50.54 -0.37,27.98 0,0 Z"
             style="fill:none;stroke:#1a2e35;stroke-width:1;stroke-linecap:butt;stroke-linejoin:round;stroke-miterlimit:10;stroke-dasharray:none;stroke-opacity:1"
             id="path322" />
        </g>
        <g
           id="g324"
           transform="translate(342.9434,246.6494)">
          <path
             d="m 0,0 v 0 c -2.176,-2.526 -5.993,-2.797 -8.504,-0.603 l -104.164,92.359 5.22,6.062 L -0.665,8.5 C 1.877,6.342 2.176,2.527 0,0"
             style="fill:#1a2e35;fill-opacity:1;fill-rule:nonzero;stroke:none"
             id="path326" />
        </g>
        <g
           id="g328"
           transform="translate(333.1494,279.6514)">
          <path
             d="m 0,0 c 0,16.054 -13.015,29.068 -29.068,29.068 -16.054,0 -29.068,-13.014 -29.068,-29.068 0,-16.054 13.014,-29.067 29.068,-29.067 C -13.015,-29.067 0,-16.054 0,0"
             style="fill:#ffffff;fill-opacity:1;fill-rule:nonzero;stroke:none"
             id="path330" />
        </g>
        <g
           id="g332"
           transform="translate(333.1494,279.6514)">
          <path
             d="m 0,0 c 0,16.054 -13.015,29.068 -29.068,29.068 -16.054,0 -29.068,-13.014 -29.068,-29.068 0,-16.054 13.014,-29.067 29.068,-29.067 C -13.015,-29.067 0,-16.054 0,0 Z"
             style="fill:none;stroke:#1a2e35;stroke-width:1;stroke-linecap:butt;stroke-linejoin:round;stroke-miterlimit:10;stroke-dasharray:none;stroke-opacity:1"
             id="path334" />
        </g>
        <g
           id="g336"
           transform="translate(319.9326,279.6514)">
          <path
             d="m 0,0 c 0,8.754 -7.097,15.852 -15.852,15.852 -8.753,0 -15.85,-7.098 -15.85,-15.852 0,-8.754 7.097,-15.851 15.85,-15.851 C -7.097,-15.851 0,-8.754 0,0"
             style="fill:#1a2e35;fill-opacity:1;fill-rule:nonzero;stroke:none"
             id="path338" />
        </g>
        <g
           id="g340"
           transform="translate(319.9326,279.6514)">
          <path
             d="m 0,0 c 0,8.754 -7.097,15.852 -15.852,15.852 -8.753,0 -15.85,-7.098 -15.85,-15.852 0,-8.754 7.097,-15.851 15.85,-15.851 C -7.097,-15.851 0,-8.754 0,0 Z"
             style="fill:none;stroke:#1a2e35;stroke-width:1;stroke-linecap:butt;stroke-linejoin:round;stroke-miterlimit:10;stroke-dasharray:none;stroke-opacity:1"
             id="path342" />
        </g>
      </g>
    </g>
    <g
       id="g344">
      <g
         id="g346"
         clip-path="url(#clipPath350)">
        <g
           id="g352">
          <g
             id="g354" />
          <g
             id="g374">
            <g
               clip-path="url(#clipPath358)"
               opacity="0.279999"
               id="g372">
              <g
                 transform="translate(201.0391,309.3452)"
                 id="g362">
                <path
                   d="M 0,0 V 18.654 H 3.409 V 2.349 H 7.922 V 0 Z"
                   style="fill:#000000;fill-opacity:1;fill-rule:nonzero;stroke:none"
                   id="path360" />
              </g>
              <g
                 transform="translate(215.5708,311.6016)"
                 id="g366">
                <path
                   d="m 0,0 c 0.568,0 0.986,0.123 1.255,0.369 0.269,0.245 0.45,0.583 0.541,1.013 0.093,0.43 0.139,0.899 0.139,1.405 v 8.59 c 0,0.521 -0.046,0.991 -0.139,1.405 -0.091,0.415 -0.272,0.74 -0.541,0.979 -0.269,0.238 -0.687,0.357 -1.255,0.357 -0.538,0 -0.944,-0.119 -1.22,-0.357 -0.277,-0.239 -0.461,-0.564 -0.553,-0.979 -0.092,-0.414 -0.138,-0.884 -0.138,-1.405 v -8.59 c 0,-0.506 0.042,-0.975 0.126,-1.405 C -1.7,0.952 -1.52,0.614 -1.244,0.369 -0.967,0.123 -0.553,0 0,0 m 0,-2.51 c -1.32,0 -2.372,0.246 -3.155,0.737 -0.783,0.491 -1.344,1.197 -1.681,2.119 -0.338,0.921 -0.507,2.011 -0.507,3.27 v 6.978 c 0,1.259 0.169,2.338 0.507,3.236 0.337,0.898 0.898,1.585 1.681,2.061 0.783,0.475 1.835,0.714 3.155,0.714 1.351,0 2.415,-0.239 3.19,-0.714 0.775,-0.476 1.335,-1.163 1.681,-2.061 0.345,-0.898 0.518,-1.977 0.518,-3.236 V 3.593 C 5.389,2.349 5.216,1.271 4.871,0.357 4.525,-0.556 3.965,-1.263 3.19,-1.761 2.415,-2.26 1.351,-2.51 0,-2.51"
                   style="fill:#000000;fill-opacity:1;fill-rule:nonzero;stroke:none"
                   id="path364" />
              </g>
              <g
                 transform="translate(225.4272,309.3452)"
                 id="g370">
                <path
                   d="M 0,0 -2.648,18.654 H 0.208 L 1.75,6.563 3.685,18.608 h 2.326 l 1.98,-12.045 1.52,12.091 h 2.81 L 9.719,0 H 6.955 L 4.882,12.505 2.833,0 Z"
                   style="fill:#000000;fill-opacity:1;fill-rule:nonzero;stroke:none"
                   id="path368" />
              </g>
            </g>
          </g>
        </g>
        <g
           id="g376">
          <g
             id="g378" />
          <g
             id="g400">
            <g
               clip-path="url(#clipPath382)"
               opacity="0.279999"
               id="g398">
              <g
                 transform="translate(367.0059,309.3452)"
                 id="g386">
                <path
                   d="m 0,0 v 18.654 h 3.386 v -7.807 h 3.8 v 7.807 h 3.408 V 0 H 7.186 v 8.429 h -3.8 V 0 Z"
                   style="fill:#000000;fill-opacity:1;fill-rule:nonzero;stroke:none"
                   id="path384" />
              </g>
              <path
                 d="m 380.548,328 h 3.362 v -18.654 h -3.362 z"
                 style="fill:#000000;fill-opacity:1;fill-rule:nonzero;stroke:none"
                 id="path388" />
              <g
                 transform="translate(391.4639,309.0918)"
                 id="g392">
                <path
                   d="m 0,0 c -1.229,0 -2.203,0.261 -2.925,0.783 -0.721,0.521 -1.24,1.263 -1.554,2.222 -0.315,0.96 -0.472,2.092 -0.472,3.397 v 6.265 c 0,1.335 0.153,2.487 0.46,3.454 0.307,0.967 0.848,1.708 1.624,2.222 0.775,0.514 1.846,0.772 3.213,0.772 1.274,0 2.287,-0.215 3.04,-0.645 0.752,-0.43 1.293,-1.048 1.623,-1.854 0.33,-0.806 0.495,-1.784 0.495,-2.937 V 12.712 H 2.257 v 1.059 c 0,0.6 -0.042,1.113 -0.127,1.544 -0.084,0.43 -0.253,0.756 -0.506,0.978 -0.254,0.223 -0.665,0.334 -1.232,0.334 -0.599,0 -1.034,-0.146 -1.301,-0.437 -0.27,-0.292 -0.439,-0.676 -0.507,-1.152 C -1.485,14.563 -1.52,14.041 -1.52,13.472 V 5.666 c 0,-0.645 0.053,-1.207 0.162,-1.682 0.106,-0.476 0.306,-0.841 0.598,-1.094 0.291,-0.253 0.706,-0.38 1.243,-0.38 0.553,0 0.975,0.138 1.267,0.415 0.292,0.276 0.495,0.659 0.61,1.151 0.116,0.491 0.173,1.074 0.173,1.75 V 7.577 H 0.529 V 9.718 H 5.597 V 0.253 H 3.408 L 3.155,2.096 C 2.909,1.481 2.537,0.979 2.038,0.587 1.539,0.196 0.859,0 0,0"
                   style="fill:#000000;fill-opacity:1;fill-rule:nonzero;stroke:none"
                   id="path390" />
              </g>
              <g
                 transform="translate(399.708,309.3452)"
                 id="g396">
                <path
                   d="m 0,0 v 18.654 h 3.386 v -7.807 h 3.8 v 7.807 h 3.408 V 0 H 7.186 v 8.429 h -3.8 V 0 Z"
                   style="fill:#000000;fill-opacity:1;fill-rule:nonzero;stroke:none"
                   id="path394" />
              </g>
            </g>
          </g>
        </g>
        <g
           id="g402"
           transform="translate(278.8301,447.0112)">
          <path
             d="M 0,0 H 1.662 C 2.699,0 3.525,0.15 4.139,0.452 4.754,0.753 5.193,1.234 5.459,1.897 5.723,2.56 5.855,3.41 5.855,4.446 5.855,5.916 5.586,7.019 5.043,7.754 4.5,8.489 3.471,8.856 1.951,8.856 H 0 Z m -5.35,-16.773 v 29.28 h 7.012 c 1.977,0 3.647,-0.235 5.008,-0.705 C 8.031,11.333 9.066,10.531 9.779,9.398 10.488,8.266 10.846,6.724 10.846,4.771 10.846,3.59 10.736,2.53 10.52,1.59 10.303,0.65 9.936,-0.151 9.416,-0.813 8.898,-1.477 8.182,-1.988 7.266,-2.35 l 4.086,-14.423 H 6 L 2.459,-3.362 H 0 v -13.411 z"
             style="fill:#5ae4a7;fill-opacity:1;fill-rule:nonzero;stroke:none"
             id="path404" />
        </g>
        <path
           d="m 293.832,459.519 h 5.278 v -29.281 h -5.278 z"
           style="fill:#5ae4a7;fill-opacity:1;fill-rule:nonzero;stroke:none"
           id="path406" />
        <g
           id="g408"
           transform="translate(311.002,429.8403)">
          <path
             d="M 0,0 C -1.759,0 -3.229,0.343 -4.41,1.03 -5.591,1.717 -6.482,2.723 -7.085,4.049 -7.687,5.374 -8.024,7 -8.097,8.929 l 4.591,0.903 c 0.048,-1.133 0.187,-2.133 0.416,-3 0.229,-0.867 0.578,-1.536 1.048,-2.006 0.47,-0.471 1.09,-0.705 1.861,-0.705 0.868,0 1.483,0.259 1.844,0.777 0.361,0.518 0.542,1.175 0.542,1.97 0,1.278 -0.289,2.325 -0.867,3.145 -0.578,0.819 -1.35,1.639 -2.314,2.458 l -3.687,3.254 c -1.036,0.891 -1.861,1.885 -2.476,2.982 -0.615,1.096 -0.922,2.452 -0.922,4.067 0,2.313 0.674,4.097 2.025,5.35 1.349,1.252 3.192,1.879 5.53,1.879 1.374,0 2.519,-0.211 3.435,-0.632 0.915,-0.422 1.644,-1.007 2.186,-1.753 0.543,-0.747 0.947,-1.597 1.211,-2.549 0.266,-0.952 0.435,-1.958 0.507,-3.018 L 2.277,21.255 c -0.048,0.916 -0.15,1.736 -0.306,2.459 -0.158,0.723 -0.434,1.288 -0.832,1.699 -0.398,0.409 -0.982,0.614 -1.753,0.614 -0.795,0 -1.405,-0.259 -1.825,-0.777 -0.422,-0.519 -0.633,-1.163 -0.633,-1.934 0,-0.988 0.204,-1.802 0.614,-2.44 0.41,-0.639 1,-1.296 1.771,-1.97 L 2.965,15.688 C 4.17,14.676 5.199,13.489 6.056,12.128 6.91,10.766 7.339,9.121 7.339,7.193 7.339,5.796 7.031,4.555 6.417,3.47 5.803,2.386 4.946,1.536 3.851,0.922 2.753,0.307 1.47,0 0,0"
             style="fill:#5ae4a7;fill-opacity:1;fill-rule:nonzero;stroke:none"
             id="path410" />
        </g>
        <g
           id="g412"
           transform="translate(321.1963,430.2378)">
          <path
             d="M 0,0 V 29.281 H 5.35 V 16.412 l 5.784,12.869 h 5.097 L 10.628,16.195 16.81,0 H 11.495 L 6.579,13.339 5.35,11.098 V 0 Z"
             style="fill:#5ae4a7;fill-opacity:1;fill-rule:nonzero;stroke:none"
             id="path414" />
        </g>
        <g
           id="g416">
          <g
             id="g418" />
          <g
             id="g448">
            <g
               clip-path="url(#clipPath422)"
               opacity="0.279999"
               id="g446">
              <g
                 transform="translate(269.8838,369.8818)"
                 id="g426">
                <path
                   d="m 0,0 0.322,18.654 h 3.524 l 2.648,-12.92 2.764,12.92 h 3.408 L 13.012,0 H 10.479 L 10.202,12.965 7.554,0 H 5.504 L 2.81,13.011 2.556,0 Z"
                   style="fill:#000000;fill-opacity:1;fill-rule:nonzero;stroke:none"
                   id="path424" />
              </g>
              <g
                 transform="translate(285.5205,369.8818)"
                 id="g430">
                <path
                   d="M 0,0 V 18.654 H 7.83 V 16.259 H 3.409 V 10.893 H 6.886 V 8.521 H 3.409 V 2.349 H 7.877 L 7.877,0 Z"
                   style="fill:#000000;fill-opacity:1;fill-rule:nonzero;stroke:none"
                   id="path428" />
              </g>
              <g
                 transform="translate(298.7861,372.2539)"
                 id="g434">
                <path
                   d="m 0,0 h 1.036 c 0.783,0 1.343,0.138 1.681,0.414 0.338,0.277 0.545,0.679 0.622,1.21 0.076,0.529 0.115,1.177 0.115,1.946 v 7.139 c 0,0.752 -0.054,1.358 -0.161,1.819 -0.107,0.46 -0.33,0.798 -0.668,1.014 -0.338,0.214 -0.883,0.321 -1.635,0.321 l -0.99,0 z M -3.409,-2.372 V 16.282 H 0.99 c 1.52,0 2.706,-0.207 3.558,-0.622 0.852,-0.414 1.458,-1.052 1.819,-1.911 0.361,-0.861 0.541,-1.95 0.541,-3.27 V 3.662 C 6.908,2.31 6.728,1.186 6.367,0.288 6.006,-0.611 5.407,-1.279 4.571,-1.716 3.734,-2.154 2.586,-2.372 1.128,-2.372 Z"
                   style="fill:#000000;fill-opacity:1;fill-rule:nonzero;stroke:none"
                   id="path432" />
              </g>
              <path
                 d="m 308.297,388.536 h 3.362 v -18.654 h -3.362 z"
                 style="fill:#000000;fill-opacity:1;fill-rule:nonzero;stroke:none"
                 id="path436" />
              <g
                 transform="translate(319.6504,369.6284)"
                 id="g440">
                <path
                   d="m 0,0 c -1.382,0 -2.456,0.253 -3.224,0.76 -0.768,0.507 -1.297,1.228 -1.589,2.165 -0.291,0.936 -0.438,2.056 -0.438,3.362 v 12.621 h 3.316 V 5.896 c 0,-0.584 0.039,-1.133 0.116,-1.647 C -1.742,3.734 -1.562,3.32 -1.278,3.005 -0.994,2.69 -0.568,2.533 0,2.533 0.599,2.533 1.032,2.69 1.302,3.005 1.569,3.32 1.746,3.734 1.831,4.249 1.915,4.763 1.958,5.312 1.958,5.896 V 18.908 H 5.251 V 6.287 C 5.251,4.981 5.104,3.861 4.813,2.925 4.521,1.988 3.996,1.267 3.235,0.76 2.476,0.253 1.397,0 0,0"
                   style="fill:#000000;fill-opacity:1;fill-rule:nonzero;stroke:none"
                   id="path438" />
              </g>
              <g
                 transform="translate(327.5264,369.8818)"
                 id="g444">
                <path
                   d="m 0,0 0.322,18.654 h 3.524 l 2.648,-12.92 2.764,12.92 h 3.409 L 13.012,0 H 10.479 L 10.202,12.965 7.554,0 H 5.504 L 2.81,13.011 2.557,0 Z"
                   style="fill:#000000;fill-opacity:1;fill-rule:nonzero;stroke:none"
                   id="path442" />
              </g>
            </g>
          </g>
        </g>
      </g>
    </g>
    <g
       id="g450">
      <g
         id="g452"
         clip-path="url(#clipPath456)">
        <g
           id="g458"
           transform="translate(174.5781,269.3696)">
          <path
             d="m 0,0 c 5.209,6.425 9.87,2.647 15.079,9.072 5.211,6.428 0.55,10.206 5.76,16.634 5.212,6.428 9.872,2.649 15.083,9.077 5.212,6.429 0.551,10.207 5.763,16.636 5.212,6.429 9.873,2.651 15.085,9.08"
             style="fill:none;stroke:#5ae4a7;stroke-width:1;stroke-linecap:round;stroke-linejoin:round;stroke-miterlimit:10;stroke-dasharray:none;stroke-opacity:1"
             id="path460" />
        </g>
        <g
           id="g462"
           transform="translate(185.4727,260.5376)">
          <path
             d="m 0,0 c 5.209,6.425 9.87,2.647 15.079,9.072 5.211,6.428 0.55,10.206 5.76,16.634 5.212,6.428 9.872,2.649 15.083,9.077 5.212,6.429 0.551,10.208 5.763,16.636 5.212,6.429 9.873,2.651 15.084,9.08"
             style="fill:none;stroke:#5ae4a7;stroke-width:1;stroke-linecap:round;stroke-linejoin:round;stroke-miterlimit:10;stroke-dasharray:none;stroke-opacity:1"
             id="path464" />
        </g>
        <g
           id="g466"
           transform="translate(196.3672,251.7056)">
          <path
             d="m 0,0 c 5.209,6.425 9.87,2.647 15.079,9.072 5.211,6.428 0.549,10.206 5.76,16.634 5.211,6.428 9.872,2.649 15.083,9.077 5.212,6.429 0.551,10.208 5.763,16.636 5.211,6.429 9.873,2.651 15.085,9.08"
             style="fill:none;stroke:#5ae4a7;stroke-width:1;stroke-linecap:round;stroke-linejoin:round;stroke-miterlimit:10;stroke-dasharray:none;stroke-opacity:1"
             id="path468" />
        </g>
        <g
           id="g470"
           transform="translate(207.2617,242.874)">
          <path
             d="m 0,0 c 5.209,6.425 9.87,2.646 15.079,9.072 5.21,6.428 0.549,10.206 5.76,16.634 5.211,6.428 9.872,2.649 15.083,9.077 5.212,6.429 0.551,10.207 5.763,16.636 5.211,6.429 9.873,2.65 15.084,9.079"
             style="fill:none;stroke:#5ae4a7;stroke-width:1;stroke-linecap:round;stroke-linejoin:round;stroke-miterlimit:10;stroke-dasharray:none;stroke-opacity:1"
             id="path472" />
        </g>
      </g>
    </g>
    <g
       id="g474"
       transform="translate(31.9736,28.9854)">
      <path
         d="M 0,0 H 438.394"
         style="fill:none;stroke:#1a2e35;stroke-width:1;stroke-linecap:round;stroke-linejoin:round;stroke-miterlimit:10;stroke-dasharray:none;stroke-opacity:1"
         id="path476" />
    </g>
    <g
       id="g478">
      <g
         id="g480"
         clip-path="url(#clipPath484)">
        <g
           id="g486"
           transform="translate(53.6758,51.8789)">
          <path
             d="m 0,0 c 0,0 -1.146,-16.997 0.191,-20.435 1.337,-3.437 6.112,-8.785 8.976,-7.639 2.865,1.146 2.101,7.83 2.101,12.414 0,4.583 1.146,11.459 1.146,12.604 C 12.414,-1.909 0,0 0,0"
             style="fill:#ffffff;fill-opacity:1;fill-rule:nonzero;stroke:none"
             id="path488" />
        </g>
        <g
           id="g490"
           transform="translate(53.6758,51.8789)">
          <path
             d="m 0,0 c 0,0 -1.146,-16.997 0.191,-20.435 1.337,-3.437 6.112,-8.785 8.976,-7.639 2.865,1.146 2.101,7.83 2.101,12.414 0,4.583 1.146,11.459 1.146,12.604 C 12.414,-1.909 0,0 0,0 Z"
             style="fill:none;stroke:#1a2e35;stroke-width:1;stroke-linecap:butt;stroke-linejoin:round;stroke-miterlimit:10;stroke-dasharray:none;stroke-opacity:1"
             id="path492" />
        </g>
        <g
           id="g494"
           transform="translate(141.7183,40.4199)">
          <path
             d="m 0,0 c 0,0 -0.382,-11.649 1.719,-12.413 2.101,-0.765 14.133,0.572 16.234,0.19 2.1,-0.381 8.785,-0.763 11.267,0 2.483,0.764 5.73,2.101 4.775,4.011 -0.955,1.91 -13.178,7.066 -15.851,8.785 -2.674,1.719 -7.449,4.966 -7.449,4.966 z"
             style="fill:#ffffff;fill-opacity:1;fill-rule:nonzero;stroke:none"
             id="path496" />
        </g>
        <g
           id="g498"
           transform="translate(141.7183,40.4199)">
          <path
             d="m 0,0 c 0,0 -0.382,-11.649 1.719,-12.413 2.101,-0.765 14.133,0.572 16.234,0.19 2.1,-0.381 8.785,-0.763 11.267,0 2.483,0.764 5.73,2.101 4.775,4.011 -0.955,1.91 -13.178,7.066 -15.851,8.785 -2.674,1.719 -7.449,4.966 -7.449,4.966 z"
             style="fill:none;stroke:#1a2e35;stroke-width:1;stroke-linecap:butt;stroke-linejoin:round;stroke-miterlimit:10;stroke-dasharray:none;stroke-opacity:1"
             id="path500" />
        </g>
        <g
           id="g502"
           transform="translate(78.8857,182.1289)">
          <path
             d="m 0,0 c 0,0 -0.955,-6.685 -1.337,-18.335 -0.382,-11.649 3.629,-35.904 3.629,-35.904 l -4.966,-28.266 -19.098,-43.543 c 0,0 -4.583,-1.146 -3.438,-4.202 1.146,-3.056 5.157,-6.302 7.448,-6.302 2.292,0 5.348,0.954 6.303,2.483 0.955,1.527 1.337,5.347 1.337,5.347 0,0 33.23,44.308 33.804,45.835 0.572,1.529 5.92,25.019 5.92,25.019 l 13.751,-18.525 19.098,-57.103 c 0,0 -1.337,-1.719 -0.573,-4.202 0.764,-2.483 2.101,-5.92 2.101,-5.92 0,0 1.909,0 5.156,1.145 3.247,1.146 6.493,4.011 6.493,4.011 0,0 0.765,1.527 0.382,3.438 -0.382,1.91 -1.528,2.673 -1.337,4.201 0.192,1.528 -6.684,55.958 -7.83,59.587 -1.146,3.629 -27.501,58.249 -27.501,58.249 L 37.432,0.954 C 37.432,0.954 20.435,-5.921 0,0"
             style="fill:#1a2e35;fill-opacity:1;fill-rule:nonzero;stroke:none"
             id="path504" />
        </g>
        <g
           id="g506"
           transform="translate(78.8857,182.1289)">
          <path
             d="m 0,0 c 0,0 -0.955,-6.685 -1.337,-18.335 -0.382,-11.649 3.629,-35.904 3.629,-35.904 l -4.966,-28.266 -19.098,-43.543 c 0,0 -4.583,-1.146 -3.438,-4.202 1.146,-3.056 5.157,-6.302 7.448,-6.302 2.292,0 5.348,0.954 6.303,2.483 0.955,1.527 1.337,5.347 1.337,5.347 0,0 33.23,44.308 33.804,45.835 0.572,1.529 5.92,25.019 5.92,25.019 l 13.751,-18.525 19.098,-57.103 c 0,0 -1.337,-1.719 -0.573,-4.202 0.764,-2.483 2.101,-5.92 2.101,-5.92 0,0 1.909,0 5.156,1.145 3.247,1.146 6.493,4.011 6.493,4.011 0,0 0.765,1.527 0.382,3.438 -0.382,1.91 -1.528,2.673 -1.337,4.201 0.192,1.528 -6.684,55.958 -7.83,59.587 -1.146,3.629 -27.501,58.249 -27.501,58.249 L 37.432,0.954 C 37.432,0.954 20.435,-5.921 0,0 Z"
             style="fill:none;stroke:#1a2e35;stroke-width:1;stroke-linecap:butt;stroke-linejoin:round;stroke-miterlimit:10;stroke-dasharray:none;stroke-opacity:1"
             id="path508" />
        </g>
        <g
           id="g510"
           transform="translate(105.627,301.0518)">
          <path
             d="m 0,0 c 0,0 -7.536,2.939 -13.647,1.377 -6.111,-1.562 -15.579,-9.926 -14.888,-14.844 0.691,-4.919 11.885,-15.67 11.885,-15.67 l -0.429,-9.824 19.531,-8.431 2.781,12.551 c 0,0 7.174,1.833 6.903,2.896 -0.272,1.063 -1.92,10.832 -1.92,10.832 0,0 2.188,1.408 0.712,3.862 -1.476,2.453 -4.649,5.937 -4.649,5.937 0,0 0.982,4.069 -6.279,11.314"
             style="fill:#ffffff;fill-opacity:1;fill-rule:nonzero;stroke:none"
             id="path512" />
        </g>
        <g
           id="g514"
           transform="translate(105.627,301.0518)">
          <path
             d="m 0,0 c 0,0 -7.536,2.939 -13.647,1.377 -6.111,-1.562 -15.579,-9.926 -14.888,-14.844 0.691,-4.919 11.885,-15.67 11.885,-15.67 l -0.429,-9.824 19.531,-8.431 2.781,12.551 c 0,0 7.174,1.833 6.903,2.896 -0.272,1.063 -1.92,10.832 -1.92,10.832 0,0 2.188,1.408 0.712,3.862 -1.476,2.453 -4.649,5.937 -4.649,5.937 0,0 0.982,4.069 -6.279,11.314 z"
             style="fill:none;stroke:#1a2e35;stroke-width:1;stroke-linecap:round;stroke-linejoin:round;stroke-miterlimit:10;stroke-dasharray:none;stroke-opacity:1"
             id="path516" />
        </g>
        <g
           id="g518"
           transform="translate(110.8599,266.2104)">
          <path
             d="m 0,0 c 0,0 -4.592,-0.023 -5.347,0.128 -0.755,0.151 -5.434,2.868 -5.434,2.868 L -2.328,-9.23 Z"
             style="fill:#1a2e35;fill-opacity:1;fill-rule:nonzero;stroke:none"
             id="path520" />
        </g>
        <g
           id="g522"
           transform="translate(110.8599,266.2104)">
          <path
             d="m 0,0 c 0,0 -4.592,-0.023 -5.347,0.128 -0.755,0.151 -5.434,2.868 -5.434,2.868 L -2.328,-9.23 Z"
             style="fill:none;stroke:#1a2e35;stroke-width:1;stroke-linecap:round;stroke-linejoin:round;stroke-miterlimit:10;stroke-dasharray:none;stroke-opacity:1"
             id="path524" />
        </g>
        <g
           id="g526"
           transform="translate(110.7681,287.2275)">
          <path
             d="M 0,0 C 0.481,-0.753 0.62,-1.524 0.31,-1.722 0,-1.92 -0.642,-1.47 -1.123,-0.717 -1.604,0.036 -1.743,0.807 -1.433,1.005 -1.123,1.203 -0.481,0.753 0,0"
             style="fill:#1a2e35;fill-opacity:1;fill-rule:nonzero;stroke:none"
             id="path528" />
        </g>
        <g
           id="g530"
           transform="translate(110.1455,290.7505)">
          <path
             d="M 0,0 C 0,0 -1.752,0.5 -2.697,-1.454"
             style="fill:none;stroke:#1a2e35;stroke-width:1;stroke-linecap:round;stroke-linejoin:round;stroke-miterlimit:10;stroke-dasharray:none;stroke-opacity:1"
             id="path532" />
        </g>
        <g
           id="g534"
           transform="translate(114.7427,277.0366)">
          <path
             d="M 0,0 C 0,0 -1.821,-0.584 -3.815,0.546"
             style="fill:none;stroke:#1a2e35;stroke-width:1;stroke-linecap:round;stroke-linejoin:round;stroke-miterlimit:10;stroke-dasharray:none;stroke-opacity:1"
             id="path536" />
        </g>
        <g
           id="g538"
           transform="translate(106.9229,299.3223)">
          <path
             d="m 0,0 -7.987,-4.174 c 0,0 3.07,-2.046 2.415,-3.911 l -0.656,-1.866 0.172,-7.316 -2.058,-0.809 c 0,0 -6.209,4.357 -7.718,0.292 -1.508,-4.065 3.762,-6.964 3.762,-6.964 0,0 -2.17,-4.8 -4.159,-5.875 -1.991,-1.075 -0.877,2.323 -4.807,3.3 -3.929,0.977 -11.349,7.856 -11.502,11.78 -0.154,3.923 1.795,12.913 8.425,16.872 6.631,3.959 11.216,4.848 14.942,4.668 3.726,-0.18 7.415,1.964 8.625,-0.557 C 0.664,2.919 0,0 0,0"
             style="fill:#1a2e35;fill-opacity:1;fill-rule:nonzero;stroke:none"
             id="path540" />
        </g>
        <g
           id="g542"
           transform="translate(106.9229,299.3223)">
          <path
             d="m 0,0 -7.987,-4.174 c 0,0 3.07,-2.046 2.415,-3.911 l -0.656,-1.866 0.172,-7.316 -2.058,-0.809 c 0,0 -6.209,4.357 -7.718,0.292 -1.508,-4.065 3.762,-6.964 3.762,-6.964 0,0 -2.17,-4.8 -4.159,-5.875 -1.991,-1.075 -0.877,2.323 -4.807,3.3 -3.929,0.977 -11.349,7.856 -11.502,11.78 -0.154,3.923 1.795,12.913 8.425,16.872 6.631,3.959 11.216,4.848 14.942,4.668 3.726,-0.18 7.415,1.964 8.625,-0.557 C 0.664,2.919 0,0 0,0 Z"
             style="fill:none;stroke:#1a2e35;stroke-width:1;stroke-linecap:round;stroke-linejoin:round;stroke-miterlimit:10;stroke-dasharray:none;stroke-opacity:1"
             id="path544" />
        </g>
        <g
           id="g546"
           transform="translate(87.0977,262.1499)">
          <path
             d="m 0,0 c 0,0 -7.257,-9.74 -10.122,-21.772 -2.865,-12.032 -3.438,-26.355 -0.955,-33.613 2.483,-7.257 2.101,-20.053 2.101,-20.053 0,0 -1.91,-3.629 0.191,-5.92 2.101,-2.292 15.47,-6.494 27.119,-4.774 11.65,1.718 12.032,4.583 12.605,6.493 0.573,1.909 0.382,27.883 -2.101,39.533 -2.483,11.649 -5.347,21.772 -7.066,26.928 C 20.053,-8.021 0,0 0,0"
             style="fill:#ffffff;fill-opacity:1;fill-rule:nonzero;stroke:none"
             id="path548" />
        </g>
        <g
           id="g550"
           transform="translate(87.0977,262.1499)">
          <path
             d="m 0,0 c 0,0 -7.257,-9.74 -10.122,-21.772 -2.865,-12.032 -3.438,-26.355 -0.955,-33.613 2.483,-7.257 2.101,-20.053 2.101,-20.053 0,0 -1.91,-3.629 0.191,-5.92 2.101,-2.292 15.47,-6.494 27.119,-4.774 11.65,1.718 12.032,4.583 12.605,6.493 0.573,1.909 0.382,27.883 -2.101,39.533 -2.483,11.649 -5.347,21.772 -7.066,26.928 C 20.053,-8.021 0,0 0,0 Z"
             style="fill:none;stroke:#1a2e35;stroke-width:1;stroke-linecap:butt;stroke-linejoin:round;stroke-miterlimit:10;stroke-dasharray:none;stroke-opacity:1"
             id="path552" />
        </g>
        <g
           id="g554"
           transform="translate(87.3496,268.5576)">
          <path
             d="M 0,0 24.194,-15.957 23.812,-24.551 -2.544,-6.79 Z"
             style="fill:#ffffff;fill-opacity:1;fill-rule:nonzero;stroke:none"
             id="path556" />
        </g>
        <g
           id="g558"
           transform="translate(87.3496,268.5576)">
          <path
             d="M 0,0 24.194,-15.957 23.812,-24.551 -2.544,-6.79 Z"
             style="fill:none;stroke:#1a2e35;stroke-width:1;stroke-linecap:butt;stroke-linejoin:round;stroke-miterlimit:10;stroke-dasharray:none;stroke-opacity:1"
             id="path560" />
        </g>
        <g
           id="g562"
           transform="translate(211.6797,234.6758)">
          <path
             d="m 0,0 -12.729,11.01 -4.321,2.553 -26.797,-48.043 c -8.31,-9.797 -21.545,-12.226 -29.563,-5.426 -8.017,6.8 -7.78,20.255 0.529,30.052 l 40.124,37.637 -11.852,10.439 -5.198,3.124 -41.012,-43.473 c -13.473,-15.885 -11.518,-39.685 4.367,-53.157 15.885,-13.473 39.683,-11.518 53.157,4.367 z"
             style="fill:#1a2e35;fill-opacity:1;fill-rule:nonzero;stroke:none"
             id="path564" />
        </g>
        <g
           id="g566"
           transform="translate(211.6797,234.6758)">
          <path
             d="m 0,0 -12.729,11.01 -4.321,2.553 -26.797,-48.043 c -8.31,-9.797 -21.545,-12.226 -29.563,-5.426 -8.017,6.8 -7.78,20.255 0.529,30.052 l 40.124,37.637 -11.852,10.439 -5.198,3.124 -41.012,-43.473 c -13.473,-15.885 -11.518,-39.685 4.367,-53.157 15.885,-13.473 39.683,-11.518 53.157,4.367 z"
             style="fill:none;stroke:#1a2e35;stroke-width:1;stroke-linecap:butt;stroke-linejoin:round;stroke-miterlimit:10;stroke-dasharray:none;stroke-opacity:1"
             id="path568" />
        </g>
        <g
           id="g570"
           transform="translate(198.9502,245.6855)">
          <path
             d="m 0,0 -4.321,2.554 -13.798,-24.74 11.821,-9.815 3.63,-2.555 15.397,23.546 z"
             style="fill:#1a2e35;fill-opacity:1;fill-rule:nonzero;stroke:none"
             id="path572" />
        </g>
        <g
           id="g574"
           transform="translate(198.9502,245.6855)">
          <path
             d="m 0,0 -4.321,2.554 -13.798,-24.74 11.821,-9.815 3.63,-2.555 15.397,23.546 z"
             style="fill:none;stroke:#1a2e35;stroke-width:1;stroke-linecap:round;stroke-linejoin:round;stroke-miterlimit:10;stroke-dasharray:none;stroke-opacity:1"
             id="path576" />
        </g>
        <g
           id="g578"
           transform="translate(154.8506,245.7451)">
          <path
             d="M 0,0 3.113,-2.947 24.072,16.714 12.22,27.153 7.022,30.277 -6.4,16.049 Z"
             style="fill:#1a2e35;fill-opacity:1;fill-rule:nonzero;stroke:none"
             id="path580" />
        </g>
        <g
           id="g582"
           transform="translate(154.8506,245.7451)">
          <path
             d="M 0,0 3.113,-2.947 24.072,16.714 12.22,27.153 7.022,30.277 -6.4,16.049 Z"
             style="fill:none;stroke:#1a2e35;stroke-width:1;stroke-linecap:round;stroke-linejoin:round;stroke-miterlimit:10;stroke-dasharray:none;stroke-opacity:1"
             id="path584" />
        </g>
        <g
           id="g586"
           transform="translate(207.8921,236.9902)">
          <path
             d="m 0,0 -13.263,11.249 -30.584,-45.728 c -8.309,-9.798 -21.545,-12.227 -29.562,-5.427 -8.018,6.8 -7.781,20.255 0.528,30.052 l 40.125,37.637 -13.263,11.249 -44.8,-41.159 c -13.473,-15.885 -11.518,-39.685 4.367,-53.157 15.885,-13.473 39.684,-11.518 53.157,4.367 z"
             style="fill:#ffffff;fill-opacity:1;fill-rule:nonzero;stroke:none"
             id="path588" />
        </g>
        <g
           id="g590"
           transform="translate(207.8921,236.9902)">
          <path
             d="m 0,0 -13.263,11.249 -30.584,-45.728 c -8.309,-9.798 -21.545,-12.227 -29.562,-5.427 -8.018,6.8 -7.781,20.255 0.528,30.052 l 40.125,37.637 -13.263,11.249 -44.8,-41.159 c -13.473,-15.885 -11.518,-39.685 4.367,-53.157 15.885,-13.473 39.684,-11.518 53.157,4.367 z"
             style="fill:none;stroke:#1a2e35;stroke-width:1;stroke-linecap:butt;stroke-linejoin:round;stroke-miterlimit:10;stroke-dasharray:none;stroke-opacity:1"
             id="path592" />
        </g>
        <g
           id="g594"
           transform="translate(192.6519,213.6846)">
          <path
             d="M 0,0 15.24,23.306 1.978,34.555 -13.484,11.437 Z"
             style="fill:#5ae4a7;fill-opacity:1;fill-rule:nonzero;stroke:none"
             id="path596" />
        </g>
        <g
           id="g598"
           transform="translate(192.6519,213.6846)">
          <path
             d="M 0,0 15.24,23.306 1.978,34.555 -13.484,11.437 Z"
             style="fill:none;stroke:#1a2e35;stroke-width:1;stroke-linecap:butt;stroke-linejoin:round;stroke-miterlimit:10;stroke-dasharray:none;stroke-opacity:1"
             id="path600" />
        </g>
        <g
           id="g602"
           transform="translate(154.8506,245.7451)">
          <path
             d="M 0,0 20.285,19.028 7.022,30.277 -13.484,11.437 Z"
             style="fill:#5ae4a7;fill-opacity:1;fill-rule:nonzero;stroke:none"
             id="path604" />
        </g>
        <g
           id="g606"
           transform="translate(154.8506,245.7451)">
          <path
             d="M 0,0 20.285,19.028 7.022,30.277 -13.484,11.437 Z"
             style="fill:none;stroke:#1a2e35;stroke-width:1;stroke-linecap:butt;stroke-linejoin:round;stroke-miterlimit:10;stroke-dasharray:none;stroke-opacity:1"
             id="path608" />
        </g>
        <g
           id="g610"
           transform="translate(109.0605,199.5078)">
          <path
             d="m 0,0 41.443,-20.626 c 0,0 3.247,2.674 4.775,4.584 1.528,1.909 2.865,2.482 4.583,2.673 1.719,0.191 2.865,-0.572 4.966,1.146 2.101,1.719 2.483,1.337 1.718,-0.573 -0.763,-1.91 -0.954,-2.674 -2.673,-2.864 -1.719,-0.192 -2.865,-0.955 -2.865,-0.955 0,0 4.966,-3.056 6.112,-3.629 1.146,-0.573 2.1,-1.527 1.718,-2.101 -0.381,-0.573 0,-1.528 -1.146,-1.528 h -2.483 c 0,0 -1.527,-1.337 -3.055,-3.246 -1.528,-1.91 -3.056,-2.865 -4.775,-3.056 -1.718,-0.191 -6.302,0 -10.313,1.146 -4.01,1.145 -37.241,11.459 -41.633,13.177 -4.393,1.719 -9.932,5.73 -9.932,5.73 z"
             style="fill:#ffffff;fill-opacity:1;fill-rule:nonzero;stroke:none"
             id="path612" />
        </g>
        <g
           id="g614"
           transform="translate(109.0605,199.5078)">
          <path
             d="m 0,0 41.443,-20.626 c 0,0 3.247,2.674 4.775,4.584 1.528,1.909 2.865,2.482 4.583,2.673 1.719,0.191 2.865,-0.572 4.966,1.146 2.101,1.719 2.483,1.337 1.718,-0.573 -0.763,-1.91 -0.954,-2.674 -2.673,-2.864 -1.719,-0.192 -2.865,-0.955 -2.865,-0.955 0,0 4.966,-3.056 6.112,-3.629 1.146,-0.573 2.1,-1.527 1.718,-2.101 -0.381,-0.573 0,-1.528 -1.146,-1.528 h -2.483 c 0,0 -1.527,-1.337 -3.055,-3.246 -1.528,-1.91 -3.056,-2.865 -4.775,-3.056 -1.718,-0.191 -6.302,0 -10.313,1.146 -4.01,1.145 -37.241,11.459 -41.633,13.177 -4.393,1.719 -9.932,5.73 -9.932,5.73 z"
             style="fill:none;stroke:#1a2e35;stroke-width:1;stroke-linecap:butt;stroke-linejoin:round;stroke-miterlimit:10;stroke-dasharray:none;stroke-opacity:1"
             id="path616" />
        </g>
        <g
           id="g618"
           transform="translate(83.2783,246.2979)">
          <path
             d="M 0,0 C 0,0 -5.539,-4.393 -4.966,-10.121 -4.393,-15.851 6.111,-54.43 6.111,-54.43 l 18.908,11.651 c 0,0 -5.921,32.275 -9.359,37.814 -3.437,5.538 -7.448,6.493 -7.448,6.493"
             style="fill:#ffffff;fill-opacity:1;fill-rule:nonzero;stroke:#1a2e35;stroke-width:1;stroke-linecap:butt;stroke-linejoin:round;stroke-miterlimit:10;stroke-dasharray:none;stroke-opacity:1"
             id="path620" />
        </g>
        <g
           id="g622"
           transform="translate(108.2969,208.8662)">
          <path
             d="m 0,0 -22.345,-13.942 c 0,0 2.292,-8.021 4.011,-9.358 l 1.718,-1.337 c 0,0 18.335,12.605 19.481,14.324 C 4.01,-8.595 0.573,-0.955 0,0"
             style="fill:#ffffff;fill-opacity:1;fill-rule:nonzero;stroke:none"
             id="path624" />
        </g>
        <g
           id="g626"
           transform="translate(108.2969,208.8662)">
          <path
             d="m 0,0 -22.345,-13.942 c 0,0 2.292,-8.021 4.011,-9.358 l 1.718,-1.337 c 0,0 18.335,12.605 19.481,14.324 C 4.01,-8.595 0.573,-0.955 0,0 Z"
             style="fill:none;stroke:#1a2e35;stroke-width:1;stroke-linecap:butt;stroke-linejoin:round;stroke-miterlimit:10;stroke-dasharray:none;stroke-opacity:1"
             id="path628" />
        </g>
        <g
           id="g630"
           transform="translate(149.9819,233.623)">
          <path
             d="M 0,0 -0.367,-0.319 C -0.941,-0.82 -1.813,-0.76 -2.314,-0.185 L -5.393,3.35 c -0.501,0.575 -0.44,1.447 0.134,1.947 l 0.367,0.319 c 0.575,0.501 1.447,0.442 1.947,-0.134 L 0.134,1.947 C 0.635,1.373 0.575,0.501 0,0"
             style="fill:#ffffff;fill-opacity:1;fill-rule:nonzero;stroke:none"
             id="path632" />
        </g>
        <g
           id="g634"
           transform="translate(149.9819,233.623)">
          <path
             d="M 0,0 -0.367,-0.319 C -0.941,-0.82 -1.813,-0.76 -2.314,-0.185 L -5.393,3.35 c -0.501,0.575 -0.44,1.447 0.134,1.947 l 0.367,0.319 c 0.575,0.501 1.447,0.442 1.947,-0.134 L 0.134,1.947 C 0.635,1.373 0.575,0.501 0,0 Z"
             style="fill:none;stroke:#1a2e35;stroke-width:1;stroke-linecap:butt;stroke-linejoin:round;stroke-miterlimit:10;stroke-dasharray:none;stroke-opacity:1"
             id="path636" />
        </g>
        <g
           id="g638"
           transform="translate(147.249,231.3984)">
          <path
             d="m 0,0 -0.367,-0.319 c -0.575,-0.5 -1.446,-0.441 -1.947,0.134 l -2.328,2.673 c -0.501,0.575 -0.441,1.447 0.134,1.948 l 0.366,0.319 c 0.576,0.501 1.447,0.44 1.948,-0.134 L 0.134,1.948 C 0.635,1.373 0.575,0.501 0,0"
             style="fill:#ffffff;fill-opacity:1;fill-rule:nonzero;stroke:none"
             id="path640" />
        </g>
        <g
           id="g642"
           transform="translate(147.249,231.3984)">
          <path
             d="m 0,0 -0.367,-0.319 c -0.575,-0.5 -1.446,-0.441 -1.947,0.134 l -2.328,2.673 c -0.501,0.575 -0.441,1.447 0.134,1.948 l 0.366,0.319 c 0.576,0.501 1.447,0.44 1.948,-0.134 L 0.134,1.948 C 0.635,1.373 0.575,0.501 0,0 Z"
             style="fill:none;stroke:#1a2e35;stroke-width:1;stroke-linecap:butt;stroke-linejoin:round;stroke-miterlimit:10;stroke-dasharray:none;stroke-opacity:1"
             id="path644" />
        </g>
        <g
           id="g646"
           transform="translate(144.6743,228.8242)">
          <path
             d="m 0,0 -0.367,-0.319 c -0.574,-0.5 -1.446,-0.441 -1.947,0.134 l -2.328,2.673 c -0.501,0.575 -0.441,1.447 0.134,1.948 l 0.367,0.319 c 0.575,0.5 1.447,0.44 1.947,-0.135 L 0.134,1.947 C 0.635,1.373 0.575,0.501 0,0"
             style="fill:#ffffff;fill-opacity:1;fill-rule:nonzero;stroke:none"
             id="path648" />
        </g>
        <g
           id="g650"
           transform="translate(144.6743,228.8242)">
          <path
             d="m 0,0 -0.367,-0.319 c -0.574,-0.5 -1.446,-0.441 -1.947,0.134 l -2.328,2.673 c -0.501,0.575 -0.441,1.447 0.134,1.948 l 0.367,0.319 c 0.575,0.5 1.447,0.44 1.947,-0.135 L 0.134,1.947 C 0.635,1.373 0.575,0.501 0,0 Z"
             style="fill:none;stroke:#1a2e35;stroke-width:1;stroke-linecap:butt;stroke-linejoin:round;stroke-miterlimit:10;stroke-dasharray:none;stroke-opacity:1"
             id="path652" />
        </g>
        <g
           id="g654"
           transform="translate(141.6089,227.1514)">
          <path
             d="m 0,0 -0.367,-0.319 c -0.574,-0.501 -1.446,-0.442 -1.947,0.133 l -1.814,2.082 c -0.5,0.576 -0.44,1.448 0.134,1.948 l 0.367,0.32 c 0.575,0.5 1.447,0.44 1.947,-0.135 L 0.134,1.947 C 0.635,1.372 0.575,0.5 0,0"
             style="fill:#ffffff;fill-opacity:1;fill-rule:nonzero;stroke:none"
             id="path656" />
        </g>
        <g
           id="g658"
           transform="translate(141.6089,227.1514)">
          <path
             d="m 0,0 -0.367,-0.319 c -0.574,-0.501 -1.446,-0.442 -1.947,0.133 l -1.814,2.082 c -0.5,0.576 -0.44,1.448 0.134,1.948 l 0.367,0.32 c 0.575,0.5 1.447,0.44 1.947,-0.135 L 0.134,1.947 C 0.635,1.372 0.575,0.5 0,0 Z"
             style="fill:none;stroke:#1a2e35;stroke-width:1;stroke-linecap:butt;stroke-linejoin:round;stroke-miterlimit:10;stroke-dasharray:none;stroke-opacity:1"
             id="path660" />
        </g>
      </g>
    </g>
  </g>
</svg>
